<?xml version="1.0" encoding="UTF-8"?>
<svg id="Capa_2" data-name="Capa 2" xmlns="http://www.w3.org/2000/svg" viewBox="0 0 461.99 118.94">
  <defs>
    <style>
      .cls-1 {
        fill: #54554b;
      }

      .cls-1, .cls-2 {
        stroke-width: 0px;
      }

      .cls-2 {
        fill: #2a93cc;
      }
    </style>
  </defs>
  <g id="Capa_2-2" data-name="Capa 2">
    <path class="cls-1" d="m70.23,46.94c-27.6,78.2,391.76,60,391.76,60C208.23,135.88-9.89,109.06.35,62.82S197.29,0,197.29,0c0,0-118.59,22.94-127.06,46.94Z"/>
  </g>
  <g id="Capa_4" data-name="Capa 4">
    <g>
      <path class="cls-2" d="m135.33,1.87l24.81,62.65h-12.89l-3.8-9.48h-29.23l-3.76,9.48h-12.93L122.4,1.87h12.93Zm-16.43,41.33h19.88l-9.92-26.08-9.96,26.08Z"/>
      <path class="cls-2" d="m233.25,1.91v62.6h-13.06V25.46l-20.88,23.81-20.88-23.81v39.06h-13.06V1.91h6.55l27.39,31.32L226.69,1.91h6.55Z"/>
      <path class="cls-2" d="m273.85,1.91c10.57,0,19,7.3,19,18.74,0,10.62-8.17,18.48-19,18.48h-18.79v25.38h-13.06V1.91h31.85Zm-1.62,25.43c3.76,0,7.82-2.32,7.82-6.68s-3.84-6.68-7.86-6.68h-17.12v13.37h17.17Z"/>
      <path class="cls-2" d="m310.78,1.82v50.59h30.97v12.1h-44.08V1.82h13.11Z"/>
      <path class="cls-2" d="m399.79,1.82v33.99c0,16.12-10.48,28.7-27.17,28.7s-27.13-12.36-27.13-28.7V1.82h13.11v33.38c0,8.39,4.19,17.21,14.07,17.21,9.3,0,14.02-8.17,14.02-17.21V1.82h13.11Z"/>
      <path class="cls-2" d="m413.14,44.68c5.77,5.59,12.67,7.86,18.39,7.86,6.42.04,11.32-2.84,11.32-7.08,0-11.18-37.05-2.36-37.05-24.94,0-12.45,10.22-18.61,22.28-18.61,7.69,0,16.12,2.49,23.07,7.43l-7.43,9.09c-3.98-2.93-10.31-4.72-15.6-4.72s-9.39,1.7-9.39,5.85c0,11.79,37.05,1.53,37.05,25.86,0,10.97-10.48,19.05-23.85,19.05-8.39,0-17.96-3.19-26.78-10.88l7.99-8.91Z"/>
    </g>
  </g>
</svg>