<?xml version="1.0" encoding="UTF-8"?>
<svg id="Capa_2" data-name="Capa 2" xmlns="http://www.w3.org/2000/svg" viewBox="0 0 83.35 16.92">
  <defs>
    <style>
      .cls-1 {
        fill: #2475a0;
        stroke-width: 0px;
      }
    </style>
  </defs>
  <g id="Capa_1-2" data-name="Capa 1">
    <polygon class="cls-1" points="20.43 0 10.57 0 9.42 0 0 16.92 1.15 16.92 11.02 16.92 12.16 16.92 21.59 0 20.43 0"/>
    <polygon class="cls-1" points="35.87 0 26.01 0 24.86 0 15.44 16.92 16.59 16.92 26.46 16.92 27.6 16.92 37.03 0 35.87 0"/>
    <polygon class="cls-1" points="51.31 0 41.45 0 40.3 0 30.88 16.92 32.03 16.92 41.9 16.92 43.04 16.92 52.47 0 51.31 0"/>
    <polygon class="cls-1" points="66.75 0 56.89 0 55.74 0 46.32 16.92 47.47 16.92 57.34 16.92 58.48 16.92 67.91 0 66.75 0"/>
    <polygon class="cls-1" points="82.19 0 72.33 0 71.18 0 61.76 16.92 62.91 16.92 72.78 16.92 73.92 16.92 83.35 0 82.19 0"/>
  </g>
</svg>